<svg viewBox="0 0 1080 1080" fill="none" xmlns="http://www.w3.org/2000/svg">      <defs>  <filter id="filter" x="-20%" y="-20%" width="140%" height="140%" filterUnits="objectBoundingBox" primitiveUnits="userSpaceOnUse" color-interpolation-filters="linearRGB">    <feMorphology operator="dilate" radius="20 20" in="SourceAlpha" result="morphology"/>    <feFlood flood-color="#ffffff" flood-opacity="1" result="flood"/>    <feComposite in="flood" in2="morphology" operator="in" result="composite"/>    <feMerge result="merge">          <feMergeNode in="composite" result="mergeNode"/>      <feMergeNode in="SourceGraphic" result="mergeNode1"/>      </feMerge>  </filter></defs>      <g id="notion-avatar" filter="url(#filter)">        <g id="notion-avatar-face" fill="#ffffff">      <!--?xml version="1.0" encoding="UTF-8"?-->    <!-- Generator: Sketch 63.1 (92452) - https://sketch.com -->    <title>Face/ 14</title>    <desc>Created with Sketch.</desc>    <g id="Face/-14" stroke="none" stroke-width="1" fill-rule="evenodd" stroke-linecap="round" stroke-linejoin="round">        <path d="M532,379 C664.54834,379 772,486.45166 772,619 C772,642.160109 783.234546,656.244677 777.453024,678.979248 C763.583554,733.517917 758.701879,941.343666 598,909 C539.618945,897.249936 461,880 433,858 C405,836 342.170039,758.772836 320.189513,718.584987 C317.498129,718.859681 314.765451,719 312,719 C267.81722,719 232,683.18278 232,639 C232,599.134956 261.158843,566.080325 299.312086,560.00055 C325.599297,455.979213 419.809919,379 532,379 Z M295.858895,624.545187 L304.141105,655.454813" id="Path" stroke="#000000" stroke-width="24"/>    </g>    </g><g id="notion-avatar-nose">      <!--?xml version="1.0" encoding="UTF-8"?-->    <title>Nose/ 0</title>    <g id="Nose/-0" stroke="none" stroke-width="1" fill="none" fill-rule="evenodd" stroke-linecap="round" stroke-linejoin="round">        <line x1="637" y1="596" x2="661.856189" y2="682.499537" id="Line" stroke="#000000" stroke-width="16" transform="translate(649.428094, 639.249768) rotate(1.032339) translate(-649.428094, -639.249768) "/>    </g>    </g><g id="notion-avatar-mouth">      <!--?xml version="1.0" encoding="UTF-8"?-->    <title>Mouth/ 8</title>    <g id="Mouth/-8" stroke="none" stroke-width="1" fill="none" fill-rule="evenodd" stroke-linecap="round" stroke-linejoin="round">        <g id="Group" transform="translate(518.000000, 729.000000)" stroke="#000000" stroke-width="16">            <path d="M-3.69482223e-13,40.2906038 C11.1513858,37.2521964 19.1513858,34.588032 24,32.2981106 C28.8486142,30.0081891 35.9892516,25.8365332 45.4219123,19.7831427 C62.4309568,8.98264352 73.6236526,2.98203532 79,1.78131814 C84.3763474,0.580600965 91.3763474,2.51817509 100,7.59404051 C112,-1.12504304 123,-2.33602686 133,3.96108903 C143,10.2582049 145.333333,20.4304691 140,34.4778814 C145.333333,41.2593909 144.666667,48.0409003 138,54.8224097 C128,64.9946738 107,72.2605768 79,69.3542156 C66.6893996,68.0763924 52.3996983,62.8419921 34,54.8224097 C27.6667209,52.0620246 16.3333876,47.2180893 -3.69482223e-13,40.2906038 Z" id="Path"/>            <path d="M12,43 C54.2826578,36.3890991 82.9493244,32.7224324 98,32 C113.050676,31.2775676 126.050676,32.9442342 137,37" id="Path"/>        </g>    </g>    </g><g id="notion-avatar-eyes">      <g id="Eyes/ 12"><g id="Group 2"><path id="Path" fill-rule="evenodd" clip-rule="evenodd" d="M534 528.156C534 528.156 562.569 554.438 586.169 549.907C609.769 545.375 599.832 520 599.832 520C599.832 520 614.738 546.282 593.622 554.438C572.506 562.595 534 528.156 534 528.156Z" fill="black" stroke="black" stroke-width="6" stroke-linecap="round" stroke-linejoin="round"/><path id="Path_2" fill-rule="evenodd" clip-rule="evenodd" d="M672 528.156C672 528.156 700.569 554.438 724.169 549.907C747.769 545.375 737.832 520 737.832 520C737.832 520 752.738 546.282 731.622 554.438C710.506 562.595 672 528.156 672 528.156Z" fill="black" stroke="black" stroke-width="6" stroke-linecap="round" stroke-linejoin="round"/></g></g>    </g><g id="notion-avatar-eyebrows">      <g id="Eyebrows/ 11"><g id="Group"><path id="Path" fill-rule="evenodd" clip-rule="evenodd" d="M682.541 491.005C682.541 491.005 728.644 489.216 741.813 495.149C754.982 501.082 753.21 511.484 753.21 511.484C753.21 511.484 746.419 503.992 737.34 499.348C728.26 494.703 682.541 491.005 682.541 491.005Z" fill="black" stroke="black" stroke-width="8" stroke-linecap="round" stroke-linejoin="round"/><path id="Path_2" fill-rule="evenodd" clip-rule="evenodd" d="M595.459 491.005C595.459 491.005 549.356 489.216 536.187 495.149C523.018 501.082 524.79 511.484 524.79 511.484C524.79 511.484 531.581 503.992 540.66 499.348C549.74 494.703 595.459 491.005 595.459 491.005Z" fill="black" stroke="black" stroke-width="8" stroke-linecap="round" stroke-linejoin="round"/></g></g>    </g><g id="notion-avatar-glasses">      <g id="Glasses/ 12"><g id="Group"><path id="Path" fill-rule="evenodd" clip-rule="evenodd" d="M805.209 500.217C805.813 491.284 798.652 484 789.699 484H455C446.163 484 439 491.163 439 500V575.76C439 580.706 441.26 585.352 445.249 588.275C465.881 603.396 532.959 650 575.94 650C627.244 650 619.761 588.343 666.321 588.343C712.881 588.343 690.97 650 747.116 640.514C791.7 632.982 802.608 538.717 805.209 500.217Z" fill="white" stroke="black" stroke-width="12" stroke-linecap="round" stroke-linejoin="round"/><g id="Group_2"><path id="Mask" fill-rule="evenodd" clip-rule="evenodd" d="M783.642 509.995C783.893 505.509 780.3 501.847 775.807 501.847L465 501.847C460.582 501.847 457 505.428 457 509.847V561.349C457 563.759 458.047 566.008 459.946 567.493C474.566 578.927 540.245 628.47 580.546 628.47C611.607 628.47 603.397 573.489 662.087 568.491C720.777 563.492 704.644 623.472 742.954 620.14C775.033 617.35 782.169 536.288 783.642 509.995Z" fill="black"/><mask id="mask0_0_1157" style="mask-type:alpha" maskUnits="userSpaceOnUse" x="457" y="501" width="327" height="128"><path id="Mask_2" fill-rule="evenodd" clip-rule="evenodd" d="M783.642 509.995C783.893 505.509 780.3 501.847 775.807 501.847L465 501.847C460.582 501.847 457 505.428 457 509.847V561.349C457 563.759 458.047 566.008 459.946 567.493C474.566 578.927 540.245 628.47 580.546 628.47C611.607 628.47 603.397 573.489 662.087 568.491C720.777 563.492 704.644 623.472 742.954 620.14C775.033 617.35 782.169 536.288 783.642 509.995Z" fill="white"/></mask><g mask="url(#mask0_0_1157)"><path id="Path_2" d="M671.808 492.742L781.264 580.828" stroke="white" stroke-width="16" stroke-linecap="round" stroke-linejoin="round"/><path id="Path_3" d="M696.436 478.979L805.892 567.065" stroke="white" stroke-width="8" stroke-linecap="round" stroke-linejoin="round"/></g></g><path id="Path_4" fill-rule="evenodd" clip-rule="evenodd" d="M439 492.036L284 523V566.875L439 552V492.036Z" fill="black" stroke="black" stroke-width="12" stroke-linecap="round" stroke-linejoin="round"/></g></g>    </g><g id="notion-avatar-hair">      <g id="Hairstyle/ 49"><path id="Path" fill-rule="evenodd" clip-rule="evenodd" d="M507.002 212C570.002 216 601.359 238.22 644.002 273C657.099 267.68 685.002 269 717.002 300C749.002 331 720.533 381.003 710.002 448C644.977 400.473 579.977 400.473 515.002 448C417.539 519.29 425.668 593 379.002 625L376.719 620.336L374.832 616.519C366.738 600.231 361.128 590.058 358.002 586C352.545 578.918 333.322 563.08 300.002 567C277.335 569.667 229.002 608 242.002 653C247.838 673.204 261.234 689.023 282.189 700.459C292.349 706.003 318.002 714 318.002 714C318.002 714 307.002 716 299.002 716C291.002 716 281.002 713 281.002 713C281.002 713 232.002 771 176.002 766C120.002 761 107.002 703 126.002 666C145.002 629 220.424 645.247 219.002 640C172.122 646.624 162.819 622.4 126.002 617C167.993 609.839 181.265 627.383 219.002 617C218.549 614.903 176.949 589.737 148.002 586C180.091 580.029 184.391 596.95 213.002 589C203.216 527.783 197.716 429.137 242.002 360C314.946 246.123 444.002 208 507.002 212Z" fill="black" stroke="black" stroke-width="12" stroke-linecap="round" stroke-linejoin="round"/></g>    </g><g id="notion-avatar-accessories">      <!--?xml version="1.0" encoding="UTF-8"?-->    <title>Accessories/ 0</title>    <g id="Accessories/-0" stroke="none" stroke-width="1" fill="none" fill-rule="evenodd"/>    </g><g id="notion-avatar-details">      <!--?xml version="1.0" encoding="UTF-8"?-->    <title>Details/ 0</title>    <g id="Details/-0" stroke="none" stroke-width="1" fill="none" fill-rule="evenodd"/>    </g><g id="notion-avatar-beard">      <!--?xml version="1.0" encoding="UTF-8"?-->    <title>Beard/ 0</title>    <g id="Beard/-0" stroke="none" stroke-width="1" fill="none" fill-rule="evenodd"/>    </g>      </g>      </svg>