<svg viewBox="0 0 1080 1080" fill="none" xmlns="http://www.w3.org/2000/svg">      <defs>  <filter id="filter" x="-20%" y="-20%" width="140%" height="140%" filterUnits="objectBoundingBox" primitiveUnits="userSpaceOnUse" color-interpolation-filters="linearRGB">    <feMorphology operator="dilate" radius="20 20" in="SourceAlpha" result="morphology"/>    <feFlood flood-color="#ffffff" flood-opacity="1" result="flood"/>    <feComposite in="flood" in2="morphology" operator="in" result="composite"/>    <feMerge result="merge">          <feMergeNode in="composite" result="mergeNode"/>      <feMergeNode in="SourceGraphic" result="mergeNode1"/>      </feMerge>  </filter></defs>      <g id="notion-avatar" filter="url(#filter)">        <g id="notion-avatar-face" fill="#ffffff">      <!--?xml version="1.0" encoding="UTF-8"?-->    <title>Face/ 6</title>    <g id="Face/-6" stroke="none" stroke-width="1" fill-rule="evenodd" stroke-linecap="round" stroke-linejoin="round">        <path d="M532,379 C664.54834,379 772,486.45166 772,619 C772,751.54834 764.54834,899 532,899 C402.610491,899 332.317998,816.086314 305.249034,718.717925 C264.225797,715.291578 232,680.909158 232,639 C232,599.134956 261.158843,566.080325 299.312086,560.00055 C325.599297,455.979213 419.809919,379 532,379 Z M295.858895,624.545187 L304.141105,655.454813" id="Path" stroke="#000000" stroke-width="24"/>    </g>    </g><g id="notion-avatar-nose">      <!--?xml version="1.0" encoding="UTF-8"?-->    <title>Nose/ 4</title>    <g id="Nose/-4" stroke="none" stroke-width="1" fill="none" fill-rule="evenodd" stroke-linecap="round" stroke-linejoin="round">        <path d="M636.843426,596.000252 C661.659687,637.453214 673.277876,666.226337 671.697992,682.319621 C670.118108,698.412905 655.181344,703.444023 626.8877,697.412976" id="Line" stroke="#000000" stroke-width="16" transform="translate(649.363766, 647.939652) rotate(1.032339) translate(-649.363766, -647.939652) "/>    </g>    </g><g id="notion-avatar-mouth">      <g id="Mouth/ 11"><path id="Path" fill-rule="evenodd" clip-rule="evenodd" d="M529 741C529 741 595 755 627 755C659 755 689 745.528 689 745.528C689 745.528 688 814 618 814C548 814 529 741 529 741Z" stroke="black" stroke-width="16" stroke-linecap="round" stroke-linejoin="round"/></g>    </g><g id="notion-avatar-eyes">      <!--?xml version="1.0" encoding="UTF-8"?-->    <title>Eyes/ 4</title>    <g id="Eyes/-4" stroke="none" stroke-width="1" fill="none" fill-rule="evenodd">        <path d="M570,516 C583.254834,516 594,526.745166 594,540 C594,553.254834 583.254834,564 570,564 C556.745166,564 546,553.254834 546,540 C546,526.745166 556.745166,516 570,516 Z M708,516 C721.254834,516 732,526.745166 732,540 C732,553.254834 721.254834,564 708,564 C694.745166,564 684,553.254834 684,540 C684,526.745166 694.745166,516 708,516 Z M562,526 C558.686292,526 556,528.686292 556,532 C556,535.313708 558.686292,538 562,538 C565.313708,538 568,535.313708 568,532 C568,528.686292 565.313708,526 562,526 Z M700,526 C696.686292,526 694,528.686292 694,532 C694,535.313708 696.686292,538 700,538 C703.313708,538 706,535.313708 706,532 C706,528.686292 703.313708,526 700,526 Z" id="Combined-Shape" fill="#000000"/>    </g>    </g><g id="notion-avatar-eyebrows">      <!--?xml version="1.0" encoding="UTF-8"?-->    <title>Eyebrows/ 7</title>    <g id="Eyebrows/-7" stroke="none" stroke-width="1" fill="none" fill-rule="evenodd" stroke-linecap="round" stroke-linejoin="round">        <g id="Group" transform="translate(528.000000, 485.000000)" stroke="#000000" stroke-width="16">            <path d="M2,31 C13.6420073,23.1142473 23.8820073,17.5142473 32.72,14.2 C41.5579927,10.8857527 52.651326,8.48575274 66,7" id="Path" transform="translate(34.000000, 19.000000) rotate(12.000000) translate(-34.000000, -19.000000) "/>            <path d="M156,31 C167.642007,23.1142473 177.882007,17.5142473 186.72,14.2 C195.557993,10.8857527 206.651326,8.48575274 220,7" id="Path" transform="translate(188.000000, 19.000000) scale(-1, 1) rotate(12.000000) translate(-188.000000, -19.000000) "/>        </g>    </g>    </g><g id="notion-avatar-glasses">      <!--?xml version="1.0" encoding="UTF-8"?-->    <title>Glasses/ 4</title>    <g id="Glasses/-4" stroke="none" stroke-width="1" fill="none" fill-rule="evenodd" stroke-linecap="round" stroke-linejoin="round">        <g id="Group" transform="translate(289.000000, 479.000000)" fill="#000000" stroke="#000000" stroke-width="4">            <path d="M229.149255,4.2334278 C247.672154,8.12981325 283.261021,21.6236388 324.690343,35.0615291 L325.464481,35.3078466 C331.11768,37.0729902 339.032765,38.8353007 349.209737,40.594778 L349.209737,57.984989 C344.161954,60.5093754 341.061801,62.8807678 339.909277,65.0991662 C325.535839,92.7654109 298.479956,110.946086 257.050634,101.460516 C200.767297,88.5740028 181.801459,20.8331746 180.110466,9.76667675 C178.419474,-1.29982114 196.205221,-2.69651627 229.149255,4.2334278 Z M519.889534,9.76667675 C518.198541,20.8331746 499.232703,88.5740028 442.949366,101.460516 C401.520044,110.946086 374.464161,92.7654109 360.090723,65.0991662 C358.969348,62.9407245 356.004199,60.637447 351.195275,58.1893337 L350.790263,57.984989 L350.790263,40.594778 L352.195626,40.3492512 C362.16219,38.5895103 369.866867,36.8269363 375.309657,35.0615291 L377.788318,34.2552658 C418.155707,21.0877247 452.698304,8.05188555 470.850745,4.2334278 L472.809163,3.82763387 C504.498419,-2.63678054 521.546707,-1.07849118 519.889534,9.76667675 Z M213.93032,27.1568877 C197.020393,46.9184911 229.149255,89.6035544 261.278116,97.5081958 C293.406978,105.412837 334.836299,80.9084489 327.226832,57.984989 C319.617364,35.0615291 239.295211,8.97621262 213.93032,27.1568877 Z M486.06968,27.1568877 C460.704789,8.97621262 380.382636,35.0615291 372.773168,57.984989 C365.163701,80.9084489 406.593022,105.412837 438.721884,97.5081958 C470.850745,89.6035544 502.979607,46.9184911 486.06968,27.1568877 Z" id="Combined-Shape"/>            <polygon id="Path" points="199 30 4 62 0 71 199 51"/>        </g>    </g>    </g><g id="notion-avatar-hair">      <g id="Hairstyle/ 31"><path id="Path" fill-rule="evenodd" clip-rule="evenodd" d="M304.306 565.52C337.243 585.751 365.511 672.712 365.511 672.712C365.511 672.712 365.252 601.808 393 560C420.749 518.192 460.001 483 460.001 483C460.001 483 453.001 467 444.44 451.95C435.88 436.899 399.899 409.29 399.899 409.29C399.899 409.29 582.534 466.231 642.612 454.357C702.69 442.484 749.621 420.302 780.515 364.949C811.409 309.595 816.59 213.248 816.59 213.248C816.59 213.248 733.414 266.466 695.832 260.494C658.25 254.523 639.768 238.18 619.952 207.908C612.261 196.159 593.16 162.47 593.16 162.47C593.16 162.47 586.419 185.366 586.817 192.079C588.205 215.501 593.616 219.059 585.681 214.893C569.218 206.25 551.73 197.141 533.324 187.407C519.054 179.861 497.63 150.783 497.63 150.783C497.63 150.783 491.035 170.889 493.648 185.455C495.292 194.615 510.821 224.307 510.821 224.307C510.821 224.307 485.652 199.471 442.094 198.945C416.855 198.641 380.949 210.817 333.977 222.605C326.905 224.38 311.824 221.908 311.824 221.908L354.267 245.388C354.267 245.388 274.534 271.192 255.789 297.105C249.4 305.936 240.401 317.865 232.782 334.906C225.497 351.2 211.516 400.336 211.516 400.336C211.516 400.336 219.8 377.186 237.879 360.988C255.958 344.789 295.534 342.016 295.534 342.016C295.534 342.016 241.217 374.824 232.109 410.494C223.002 446.165 251.335 572.688 251.335 572.688C251.335 572.688 271.368 545.289 304.306 565.52Z" fill="black" stroke="black" stroke-width="12" stroke-linecap="round" stroke-linejoin="round"/></g>    </g><g id="notion-avatar-accessories">      <!--?xml version="1.0" encoding="UTF-8"?-->    <title>Accessories/ 0</title>    <g id="Accessories/-0" stroke="none" stroke-width="1" fill="none" fill-rule="evenodd"/>    </g><g id="notion-avatar-details">      <!--?xml version="1.0" encoding="UTF-8"?-->    <title>Details/ 0</title>    <g id="Details/-0" stroke="none" stroke-width="1" fill="none" fill-rule="evenodd"/>    </g><g id="notion-avatar-beard">      <!--?xml version="1.0" encoding="UTF-8"?-->    <title>Beard/ 0</title>    <g id="Beard/-0" stroke="none" stroke-width="1" fill="none" fill-rule="evenodd"/>    </g>      </g>      </svg>